<?xml version="1.0" encoding="utf-8" standalone="no"?>
<!DOCTYPE svg PUBLIC "-//W3C//DTD SVG 1.1//EN"
  "http://www.w3.org/Graphics/SVG/1.1/DTD/svg11.dtd">
<svg xmlns:xlink="http://www.w3.org/1999/xlink" width="429.205937pt" height="325.986375pt" viewBox="0 0 429.205937 325.986375" xmlns="http://www.w3.org/2000/svg" version="1.1">
 <metadata>
  <rdf:RDF xmlns:dc="http://purl.org/dc/elements/1.1/" xmlns:cc="http://creativecommons.org/ns#" xmlns:rdf="http://www.w3.org/1999/02/22-rdf-syntax-ns#">
   <cc:Work>
    <dc:type rdf:resource="http://purl.org/dc/dcmitype/StillImage"/>
    <dc:date>2023-09-21T17:21:07.349253</dc:date>
    <dc:format>image/svg+xml</dc:format>
    <dc:creator>
     <cc:Agent>
      <dc:title>Matplotlib v3.7.1, https://matplotlib.org/</dc:title>
     </cc:Agent>
    </dc:creator>
   </cc:Work>
  </rdf:RDF>
 </metadata>
 <defs>
  <style type="text/css">*{stroke-linejoin: round; stroke-linecap: butt}</style>
 </defs>
 <g id="figure_1">
  <g id="patch_1">
   <path d="M 0 325.986375 
L 429.205937 325.986375 
L 429.205937 0 
L 0 0 
z
" style="fill: #ffffff"/>
  </g>
  <g id="axes_1">
   <g id="patch_2">
    <path d="M 64.885938 288.430125 
L 422.005938 288.430125 
L 422.005938 22.318125 
L 64.885938 22.318125 
z
" style="fill: #ffffff"/>
   </g>
   <g id="PathCollection_1">
    <defs>
     <path id="m338b558133" d="M 0 3 
C 0.795609 3 1.55874 2.683901 2.12132 2.12132 
C 2.683901 1.55874 3 0.795609 3 0 
C 3 -0.795609 2.683901 -1.55874 2.12132 -2.12132 
C 1.55874 -2.683901 0.795609 -3 0 -3 
C -0.795609 -3 -1.55874 -2.683901 -2.12132 -2.12132 
C -2.683901 -1.55874 -3 -0.795609 -3 0 
C -3 0.795609 -2.683901 1.55874 -2.12132 2.12132 
C -1.55874 2.683901 -0.795609 3 0 3 
z
" style="stroke: #ff0000"/>
    </defs>
    <g clip-path="url(#p8b15f4884a)">
     <use xlink:href="#m338b558133" x="134.362843" y="123.503317" style="fill: #ff0000; stroke: #ff0000"/>
     <use xlink:href="#m338b558133" x="221.492076" y="218.392325" style="fill: #ff0000; stroke: #ff0000"/>
     <use xlink:href="#m338b558133" x="221.529959" y="218.342554" style="fill: #ff0000; stroke: #ff0000"/>
     <use xlink:href="#m338b558133" x="95.160876" y="123.321143" style="fill: #ff0000; stroke: #ff0000"/>
     <use xlink:href="#m338b558133" x="192.344561" y="185.766423" style="fill: #ff0000; stroke: #ff0000"/>
     <use xlink:href="#m338b558133" x="201.843129" y="232.57087" style="fill: #ff0000; stroke: #ff0000"/>
     <use xlink:href="#m338b558133" x="379.260459" y="34.414125" style="fill: #ff0000; stroke: #ff0000"/>
     <use xlink:href="#m338b558133" x="224.70451" y="226.857467" style="fill: #ff0000; stroke: #ff0000"/>
     <use xlink:href="#m338b558133" x="130.856619" y="140.580712" style="fill: #ff0000; stroke: #ff0000"/>
     <use xlink:href="#m338b558133" x="192.899324" y="205.944576" style="fill: #ff0000; stroke: #ff0000"/>
     <use xlink:href="#m338b558133" x="286.115801" y="162.533597" style="fill: #ff0000; stroke: #ff0000"/>
     <use xlink:href="#m338b558133" x="133.994451" y="137.433994" style="fill: #ff0000; stroke: #ff0000"/>
     <use xlink:href="#m338b558133" x="205.294086" y="220.134437" style="fill: #ff0000; stroke: #ff0000"/>
     <use xlink:href="#m338b558133" x="165.046312" y="130.236895" style="fill: #ff0000; stroke: #ff0000"/>
     <use xlink:href="#m338b558133" x="185.735926" y="183.733627" style="fill: #ff0000; stroke: #ff0000"/>
     <use xlink:href="#m338b558133" x="159.161241" y="166.677437" style="fill: #ff0000; stroke: #ff0000"/>
     <use xlink:href="#m338b558133" x="133.57762" y="124.178545" style="fill: #ff0000; stroke: #ff0000"/>
     <use xlink:href="#m338b558133" x="154.267347" y="193.808355" style="fill: #ff0000; stroke: #ff0000"/>
    </g>
   </g>
   <g id="PathCollection_2">
    <defs>
     <path id="m57baaabf5e" d="M 0 3 
C 0.795609 3 1.55874 2.683901 2.12132 2.12132 
C 2.683901 1.55874 3 0.795609 3 0 
C 3 -0.795609 2.683901 -1.55874 2.12132 -2.12132 
C 1.55874 -2.683901 0.795609 -3 0 -3 
C -0.795609 -3 -1.55874 -2.683901 -2.12132 -2.12132 
C -2.683901 -1.55874 -3 -0.795609 -3 0 
C -3 0.795609 -2.683901 1.55874 -2.12132 2.12132 
C -1.55874 2.683901 -0.795609 3 0 3 
z
" style="stroke: #0000ff"/>
    </defs>
    <g clip-path="url(#p8b15f4884a)">
     <use xlink:href="#m57baaabf5e" x="322.872847" y="87.745841" style="fill: #0000ff; stroke: #0000ff"/>
     <use xlink:href="#m57baaabf5e" x="261.818018" y="204.34985" style="fill: #0000ff; stroke: #0000ff"/>
     <use xlink:href="#m57baaabf5e" x="255.596505" y="183.561468" style="fill: #0000ff; stroke: #0000ff"/>
     <use xlink:href="#m57baaabf5e" x="197.766395" y="222.007002" style="fill: #0000ff; stroke: #0000ff"/>
     <use xlink:href="#m57baaabf5e" x="192.322967" y="192.396017" style="fill: #0000ff; stroke: #0000ff"/>
     <use xlink:href="#m57baaabf5e" x="156.739858" y="158.473321" style="fill: #0000ff; stroke: #0000ff"/>
     <use xlink:href="#m57baaabf5e" x="262.394186" y="185.799578" style="fill: #0000ff; stroke: #0000ff"/>
     <use xlink:href="#m57baaabf5e" x="175.078933" y="169.341277" style="fill: #0000ff; stroke: #0000ff"/>
     <use xlink:href="#m57baaabf5e" x="95.668542" y="119.555387" style="fill: #0000ff; stroke: #0000ff"/>
     <use xlink:href="#m57baaabf5e" x="126.13109" y="142.303125" style="fill: #0000ff; stroke: #0000ff"/>
     <use xlink:href="#m57baaabf5e" x="168.679575" y="195.040721" style="fill: #0000ff; stroke: #0000ff"/>
     <use xlink:href="#m57baaabf5e" x="231.532259" y="152.332989" style="fill: #0000ff; stroke: #0000ff"/>
     <use xlink:href="#m57baaabf5e" x="188.041065" y="205.037459" style="fill: #0000ff; stroke: #0000ff"/>
     <use xlink:href="#m57baaabf5e" x="255.630073" y="212.329321" style="fill: #0000ff; stroke: #0000ff"/>
     <use xlink:href="#m57baaabf5e" x="198.372267" y="187.087639" style="fill: #0000ff; stroke: #0000ff"/>
     <use xlink:href="#m57baaabf5e" x="230.683146" y="166.273202" style="fill: #0000ff; stroke: #0000ff"/>
     <use xlink:href="#m57baaabf5e" x="261.677984" y="204.495801" style="fill: #0000ff; stroke: #0000ff"/>
     <use xlink:href="#m57baaabf5e" x="251.917309" y="194.07314" style="fill: #0000ff; stroke: #0000ff"/>
     <use xlink:href="#m57baaabf5e" x="143.172586" y="127.143867" style="fill: #0000ff; stroke: #0000ff"/>
     <use xlink:href="#m57baaabf5e" x="211.561938" y="185.636046" style="fill: #0000ff; stroke: #0000ff"/>
     <use xlink:href="#m57baaabf5e" x="127.828251" y="134.743553" style="fill: #0000ff; stroke: #0000ff"/>
     <use xlink:href="#m57baaabf5e" x="185.381489" y="197.09904" style="fill: #0000ff; stroke: #0000ff"/>
     <use xlink:href="#m57baaabf5e" x="110.016127" y="143.431978" style="fill: #0000ff; stroke: #0000ff"/>
     <use xlink:href="#m57baaabf5e" x="113.039863" y="127.535431" style="fill: #0000ff; stroke: #0000ff"/>
     <use xlink:href="#m57baaabf5e" x="155.387318" y="192.548762" style="fill: #0000ff; stroke: #0000ff"/>
     <use xlink:href="#m57baaabf5e" x="405.77321" y="44.897957" style="fill: #0000ff; stroke: #0000ff"/>
     <use xlink:href="#m57baaabf5e" x="180.270115" y="179.127971" style="fill: #0000ff; stroke: #0000ff"/>
     <use xlink:href="#m57baaabf5e" x="192.139227" y="184.401972" style="fill: #0000ff; stroke: #0000ff"/>
     <use xlink:href="#m57baaabf5e" x="197.891505" y="160.105221" style="fill: #0000ff; stroke: #0000ff"/>
     <use xlink:href="#m57baaabf5e" x="261.741156" y="183.050862" style="fill: #0000ff; stroke: #0000ff"/>
     <use xlink:href="#m57baaabf5e" x="85.380434" y="117.811021" style="fill: #0000ff; stroke: #0000ff"/>
     <use xlink:href="#m57baaabf5e" x="190.273824" y="185.942951" style="fill: #0000ff; stroke: #0000ff"/>
     <use xlink:href="#m57baaabf5e" x="159.856887" y="196.717183" style="fill: #0000ff; stroke: #0000ff"/>
     <use xlink:href="#m57baaabf5e" x="186.820554" y="160.704135" style="fill: #0000ff; stroke: #0000ff"/>
     <use xlink:href="#m57baaabf5e" x="253.117823" y="205.532292" style="fill: #0000ff; stroke: #0000ff"/>
     <use xlink:href="#m57baaabf5e" x="132.131645" y="149.029547" style="fill: #0000ff; stroke: #0000ff"/>
     <use xlink:href="#m57baaabf5e" x="182.473533" y="167.864733" style="fill: #0000ff; stroke: #0000ff"/>
     <use xlink:href="#m57baaabf5e" x="298.782121" y="199.75722" style="fill: #0000ff; stroke: #0000ff"/>
     <use xlink:href="#m57baaabf5e" x="261.407543" y="178.210728" style="fill: #0000ff; stroke: #0000ff"/>
     <use xlink:href="#m57baaabf5e" x="165.846177" y="210.699901" style="fill: #0000ff; stroke: #0000ff"/>
     <use xlink:href="#m57baaabf5e" x="207.581287" y="157.007279" style="fill: #0000ff; stroke: #0000ff"/>
     <use xlink:href="#m57baaabf5e" x="268.765446" y="130.075404" style="fill: #0000ff; stroke: #0000ff"/>
     <use xlink:href="#m57baaabf5e" x="81.118665" y="113.210451" style="fill: #0000ff; stroke: #0000ff"/>
     <use xlink:href="#m57baaabf5e" x="149.010153" y="188.860851" style="fill: #0000ff; stroke: #0000ff"/>
     <use xlink:href="#m57baaabf5e" x="216.544815" y="230.530118" style="fill: #0000ff; stroke: #0000ff"/>
     <use xlink:href="#m57baaabf5e" x="262.242354" y="182.877559" style="fill: #0000ff; stroke: #0000ff"/>
     <use xlink:href="#m57baaabf5e" x="104.53864" y="129.328692" style="fill: #0000ff; stroke: #0000ff"/>
     <use xlink:href="#m57baaabf5e" x="215.762459" y="195.084657" style="fill: #0000ff; stroke: #0000ff"/>
     <use xlink:href="#m57baaabf5e" x="196.765897" y="129.601474" style="fill: #0000ff; stroke: #0000ff"/>
     <use xlink:href="#m57baaabf5e" x="163.570952" y="177.159371" style="fill: #0000ff; stroke: #0000ff"/>
     <use xlink:href="#m57baaabf5e" x="231.990206" y="253.878176" style="fill: #0000ff; stroke: #0000ff"/>
     <use xlink:href="#m57baaabf5e" x="219.609871" y="143.375404" style="fill: #0000ff; stroke: #0000ff"/>
     <use xlink:href="#m57baaabf5e" x="210.495152" y="182.614961" style="fill: #0000ff; stroke: #0000ff"/>
     <use xlink:href="#m57baaabf5e" x="218.678047" y="156.681165" style="fill: #0000ff; stroke: #0000ff"/>
     <use xlink:href="#m57baaabf5e" x="268.756752" y="162.115835" style="fill: #0000ff; stroke: #0000ff"/>
     <use xlink:href="#m57baaabf5e" x="235.612954" y="245.309534" style="fill: #0000ff; stroke: #0000ff"/>
     <use xlink:href="#m57baaabf5e" x="176.41254" y="188.842017" style="fill: #0000ff; stroke: #0000ff"/>
     <use xlink:href="#m57baaabf5e" x="134.75969" y="191.854111" style="fill: #0000ff; stroke: #0000ff"/>
     <use xlink:href="#m57baaabf5e" x="148.60276" y="167.614861" style="fill: #0000ff; stroke: #0000ff"/>
     <use xlink:href="#m57baaabf5e" x="137.762045" y="157.608167" style="fill: #0000ff; stroke: #0000ff"/>
     <use xlink:href="#m57baaabf5e" x="98.290503" y="121.359622" style="fill: #0000ff; stroke: #0000ff"/>
     <use xlink:href="#m57baaabf5e" x="136.582356" y="127.618893" style="fill: #0000ff; stroke: #0000ff"/>
     <use xlink:href="#m57baaabf5e" x="193.298891" y="183.319261" style="fill: #0000ff; stroke: #0000ff"/>
     <use xlink:href="#m57baaabf5e" x="227.754626" y="185.39395" style="fill: #0000ff; stroke: #0000ff"/>
     <use xlink:href="#m57baaabf5e" x="180.663294" y="179.374323" style="fill: #0000ff; stroke: #0000ff"/>
     <use xlink:href="#m57baaabf5e" x="276.167978" y="147.447461" style="fill: #0000ff; stroke: #0000ff"/>
     <use xlink:href="#m57baaabf5e" x="189.079727" y="204.235863" style="fill: #0000ff; stroke: #0000ff"/>
     <use xlink:href="#m57baaabf5e" x="141.003889" y="146.685746" style="fill: #0000ff; stroke: #0000ff"/>
     <use xlink:href="#m57baaabf5e" x="178.639123" y="213.074803" style="fill: #0000ff; stroke: #0000ff"/>
     <use xlink:href="#m57baaabf5e" x="201.194962" y="165.560453" style="fill: #0000ff; stroke: #0000ff"/>
     <use xlink:href="#m57baaabf5e" x="183.788286" y="183.410739" style="fill: #0000ff; stroke: #0000ff"/>
     <use xlink:href="#m57baaabf5e" x="208.937602" y="186.760837" style="fill: #0000ff; stroke: #0000ff"/>
     <use xlink:href="#m57baaabf5e" x="148.406479" y="213.594776" style="fill: #0000ff; stroke: #0000ff"/>
     <use xlink:href="#m57baaabf5e" x="138.236001" y="161.801692" style="fill: #0000ff; stroke: #0000ff"/>
     <use xlink:href="#m57baaabf5e" x="176.270758" y="239.371547" style="fill: #0000ff; stroke: #0000ff"/>
     <use xlink:href="#m57baaabf5e" x="143.158798" y="164.05169" style="fill: #0000ff; stroke: #0000ff"/>
     <use xlink:href="#m57baaabf5e" x="174.052583" y="193.761503" style="fill: #0000ff; stroke: #0000ff"/>
     <use xlink:href="#m57baaabf5e" x="235.292965" y="169.370485" style="fill: #0000ff; stroke: #0000ff"/>
     <use xlink:href="#m57baaabf5e" x="220.637259" y="167.757431" style="fill: #0000ff; stroke: #0000ff"/>
     <use xlink:href="#m57baaabf5e" x="152.007654" y="154.996744" style="fill: #0000ff; stroke: #0000ff"/>
     <use xlink:href="#m57baaabf5e" x="140.375894" y="181.610082" style="fill: #0000ff; stroke: #0000ff"/>
     <use xlink:href="#m57baaabf5e" x="285.907958" y="164.42863" style="fill: #0000ff; stroke: #0000ff"/>
     <use xlink:href="#m57baaabf5e" x="222.459158" y="147.092407" style="fill: #0000ff; stroke: #0000ff"/>
     <use xlink:href="#m57baaabf5e" x="192.483131" y="246.493364" style="fill: #0000ff; stroke: #0000ff"/>
     <use xlink:href="#m57baaabf5e" x="203.101328" y="145.572206" style="fill: #0000ff; stroke: #0000ff"/>
     <use xlink:href="#m57baaabf5e" x="313.118151" y="120.472668" style="fill: #0000ff; stroke: #0000ff"/>
     <use xlink:href="#m57baaabf5e" x="187.11759" y="170.649037" style="fill: #0000ff; stroke: #0000ff"/>
     <use xlink:href="#m57baaabf5e" x="200.678168" y="186.257111" style="fill: #0000ff; stroke: #0000ff"/>
     <use xlink:href="#m57baaabf5e" x="196.525384" y="207.347921" style="fill: #0000ff; stroke: #0000ff"/>
     <use xlink:href="#m57baaabf5e" x="96.303782" y="127.039257" style="fill: #0000ff; stroke: #0000ff"/>
     <use xlink:href="#m57baaabf5e" x="207.318855" y="167.398452" style="fill: #0000ff; stroke: #0000ff"/>
     <use xlink:href="#m57baaabf5e" x="179.211862" y="178.19339" style="fill: #0000ff; stroke: #0000ff"/>
     <use xlink:href="#m57baaabf5e" x="332.03894" y="69.107596" style="fill: #0000ff; stroke: #0000ff"/>
     <use xlink:href="#m57baaabf5e" x="162.949731" y="157.640415" style="fill: #0000ff; stroke: #0000ff"/>
     <use xlink:href="#m57baaabf5e" x="148.65425" y="163.287807" style="fill: #0000ff; stroke: #0000ff"/>
     <use xlink:href="#m57baaabf5e" x="170.803399" y="158.0079" style="fill: #0000ff; stroke: #0000ff"/>
     <use xlink:href="#m57baaabf5e" x="128.695746" y="149.670267" style="fill: #0000ff; stroke: #0000ff"/>
     <use xlink:href="#m57baaabf5e" x="195.962591" y="188.278798" style="fill: #0000ff; stroke: #0000ff"/>
     <use xlink:href="#m57baaabf5e" x="206.056561" y="213.564239" style="fill: #0000ff; stroke: #0000ff"/>
     <use xlink:href="#m57baaabf5e" x="123.077458" y="142.413514" style="fill: #0000ff; stroke: #0000ff"/>
     <use xlink:href="#m57baaabf5e" x="302.814586" y="110.901834" style="fill: #0000ff; stroke: #0000ff"/>
     <use xlink:href="#m57baaabf5e" x="210.039398" y="216.866017" style="fill: #0000ff; stroke: #0000ff"/>
     <use xlink:href="#m57baaabf5e" x="228.782021" y="203.753242" style="fill: #0000ff; stroke: #0000ff"/>
     <use xlink:href="#m57baaabf5e" x="248.261455" y="128.800286" style="fill: #0000ff; stroke: #0000ff"/>
     <use xlink:href="#m57baaabf5e" x="146.417923" y="184.486553" style="fill: #0000ff; stroke: #0000ff"/>
     <use xlink:href="#m57baaabf5e" x="102.798024" y="105.929738" style="fill: #0000ff; stroke: #0000ff"/>
     <use xlink:href="#m57baaabf5e" x="176.138308" y="158.00026" style="fill: #0000ff; stroke: #0000ff"/>
     <use xlink:href="#m57baaabf5e" x="249.508367" y="207.314749" style="fill: #0000ff; stroke: #0000ff"/>
     <use xlink:href="#m57baaabf5e" x="214.080783" y="187.930402" style="fill: #0000ff; stroke: #0000ff"/>
     <use xlink:href="#m57baaabf5e" x="245.986635" y="180.505766" style="fill: #0000ff; stroke: #0000ff"/>
     <use xlink:href="#m57baaabf5e" x="164.210762" y="187.600956" style="fill: #0000ff; stroke: #0000ff"/>
     <use xlink:href="#m57baaabf5e" x="134.059404" y="136.945218" style="fill: #0000ff; stroke: #0000ff"/>
     <use xlink:href="#m57baaabf5e" x="234.541724" y="180.333376" style="fill: #0000ff; stroke: #0000ff"/>
     <use xlink:href="#m57baaabf5e" x="192.655281" y="176.273415" style="fill: #0000ff; stroke: #0000ff"/>
     <use xlink:href="#m57baaabf5e" x="254.745624" y="185.865811" style="fill: #0000ff; stroke: #0000ff"/>
     <use xlink:href="#m57baaabf5e" x="189.551628" y="170.764952" style="fill: #0000ff; stroke: #0000ff"/>
     <use xlink:href="#m57baaabf5e" x="206.43054" y="254.914249" style="fill: #0000ff; stroke: #0000ff"/>
     <use xlink:href="#m57baaabf5e" x="138.943689" y="149.050448" style="fill: #0000ff; stroke: #0000ff"/>
     <use xlink:href="#m57baaabf5e" x="211.12125" y="276.334125" style="fill: #0000ff; stroke: #0000ff"/>
     <use xlink:href="#m57baaabf5e" x="250.380777" y="170.126622" style="fill: #0000ff; stroke: #0000ff"/>
     <use xlink:href="#m57baaabf5e" x="182.857115" y="154.381245" style="fill: #0000ff; stroke: #0000ff"/>
     <use xlink:href="#m57baaabf5e" x="130.0675" y="167.123019" style="fill: #0000ff; stroke: #0000ff"/>
     <use xlink:href="#m57baaabf5e" x="225.49015" y="166.57244" style="fill: #0000ff; stroke: #0000ff"/>
     <use xlink:href="#m57baaabf5e" x="146.673273" y="156.203214" style="fill: #0000ff; stroke: #0000ff"/>
     <use xlink:href="#m57baaabf5e" x="203.505676" y="216.094285" style="fill: #0000ff; stroke: #0000ff"/>
     <use xlink:href="#m57baaabf5e" x="254.744226" y="205.599414" style="fill: #0000ff; stroke: #0000ff"/>
     <use xlink:href="#m57baaabf5e" x="263.941266" y="105.294294" style="fill: #0000ff; stroke: #0000ff"/>
     <use xlink:href="#m57baaabf5e" x="172.335241" y="156.219945" style="fill: #0000ff; stroke: #0000ff"/>
     <use xlink:href="#m57baaabf5e" x="122.800427" y="157.433614" style="fill: #0000ff; stroke: #0000ff"/>
     <use xlink:href="#m57baaabf5e" x="241.470968" y="182.22715" style="fill: #0000ff; stroke: #0000ff"/>
     <use xlink:href="#m57baaabf5e" x="351.862344" y="132.603002" style="fill: #0000ff; stroke: #0000ff"/>
     <use xlink:href="#m57baaabf5e" x="321.256992" y="89.563319" style="fill: #0000ff; stroke: #0000ff"/>
     <use xlink:href="#m57baaabf5e" x="129.460312" y="150.676526" style="fill: #0000ff; stroke: #0000ff"/>
     <use xlink:href="#m57baaabf5e" x="112.098778" y="145.39596" style="fill: #0000ff; stroke: #0000ff"/>
     <use xlink:href="#m57baaabf5e" x="189.930289" y="178.703269" style="fill: #0000ff; stroke: #0000ff"/>
     <use xlink:href="#m57baaabf5e" x="187.649529" y="202.898781" style="fill: #0000ff; stroke: #0000ff"/>
     <use xlink:href="#m57baaabf5e" x="168.398186" y="157.024195" style="fill: #0000ff; stroke: #0000ff"/>
     <use xlink:href="#m57baaabf5e" x="188.911354" y="184.807359" style="fill: #0000ff; stroke: #0000ff"/>
     <use xlink:href="#m57baaabf5e" x="243.362312" y="222.245082" style="fill: #0000ff; stroke: #0000ff"/>
     <use xlink:href="#m57baaabf5e" x="181.437454" y="200.84575" style="fill: #0000ff; stroke: #0000ff"/>
     <use xlink:href="#m57baaabf5e" x="216.669502" y="186.479914" style="fill: #0000ff; stroke: #0000ff"/>
     <use xlink:href="#m57baaabf5e" x="193.908808" y="169.471493" style="fill: #0000ff; stroke: #0000ff"/>
     <use xlink:href="#m57baaabf5e" x="138.846955" y="152.353228" style="fill: #0000ff; stroke: #0000ff"/>
     <use xlink:href="#m57baaabf5e" x="239.798121" y="184.931315" style="fill: #0000ff; stroke: #0000ff"/>
     <use xlink:href="#m57baaabf5e" x="126.142973" y="166.661626" style="fill: #0000ff; stroke: #0000ff"/>
     <use xlink:href="#m57baaabf5e" x="151.284861" y="129.992995" style="fill: #0000ff; stroke: #0000ff"/>
     <use xlink:href="#m57baaabf5e" x="178.348714" y="204.491083" style="fill: #0000ff; stroke: #0000ff"/>
     <use xlink:href="#m57baaabf5e" x="147.422728" y="149.746182" style="fill: #0000ff; stroke: #0000ff"/>
     <use xlink:href="#m57baaabf5e" x="156.030918" y="178.766403" style="fill: #0000ff; stroke: #0000ff"/>
     <use xlink:href="#m57baaabf5e" x="177.32374" y="166.086904" style="fill: #0000ff; stroke: #0000ff"/>
     <use xlink:href="#m57baaabf5e" x="191.06295" y="214.809204" style="fill: #0000ff; stroke: #0000ff"/>
     <use xlink:href="#m57baaabf5e" x="195.792697" y="180.163447" style="fill: #0000ff; stroke: #0000ff"/>
     <use xlink:href="#m57baaabf5e" x="176.065768" y="154.249219" style="fill: #0000ff; stroke: #0000ff"/>
     <use xlink:href="#m57baaabf5e" x="191.78314" y="211.63768" style="fill: #0000ff; stroke: #0000ff"/>
    </g>
   </g>
   <g id="matplotlib.axis_1">
    <g id="xtick_1">
     <g id="line2d_1">
      <defs>
       <path id="m2f1d5e38cf" d="M 0 0 
L 0 3.5 
" style="stroke: #000000; stroke-width: 0.8"/>
      </defs>
      <g>
       <use xlink:href="#m2f1d5e38cf" x="69.681182" y="288.430125" style="stroke: #000000; stroke-width: 0.8"/>
      </g>
     </g>
     <g id="text_1">
      <!-- −0.075 -->
      <g transform="translate(51.177275 303.028562) scale(0.1 -0.1)">
       <defs>
        <path id="DejaVuSans-2212" d="M 678 2272 
L 4684 2272 
L 4684 1741 
L 678 1741 
L 678 2272 
z
" transform="scale(0.015625)"/>
        <path id="DejaVuSans-30" d="M 2034 4250 
Q 1547 4250 1301 3770 
Q 1056 3291 1056 2328 
Q 1056 1369 1301 889 
Q 1547 409 2034 409 
Q 2525 409 2770 889 
Q 3016 1369 3016 2328 
Q 3016 3291 2770 3770 
Q 2525 4250 2034 4250 
z
M 2034 4750 
Q 2819 4750 3233 4129 
Q 3647 3509 3647 2328 
Q 3647 1150 3233 529 
Q 2819 -91 2034 -91 
Q 1250 -91 836 529 
Q 422 1150 422 2328 
Q 422 3509 836 4129 
Q 1250 4750 2034 4750 
z
" transform="scale(0.015625)"/>
        <path id="DejaVuSans-2e" d="M 684 794 
L 1344 794 
L 1344 0 
L 684 0 
L 684 794 
z
" transform="scale(0.015625)"/>
        <path id="DejaVuSans-37" d="M 525 4666 
L 3525 4666 
L 3525 4397 
L 1831 0 
L 1172 0 
L 2766 4134 
L 525 4134 
L 525 4666 
z
" transform="scale(0.015625)"/>
        <path id="DejaVuSans-35" d="M 691 4666 
L 3169 4666 
L 3169 4134 
L 1269 4134 
L 1269 2991 
Q 1406 3038 1543 3061 
Q 1681 3084 1819 3084 
Q 2600 3084 3056 2656 
Q 3513 2228 3513 1497 
Q 3513 744 3044 326 
Q 2575 -91 1722 -91 
Q 1428 -91 1123 -41 
Q 819 9 494 109 
L 494 744 
Q 775 591 1075 516 
Q 1375 441 1709 441 
Q 2250 441 2565 725 
Q 2881 1009 2881 1497 
Q 2881 1984 2565 2268 
Q 2250 2553 1709 2553 
Q 1456 2553 1204 2497 
Q 953 2441 691 2322 
L 691 4666 
z
" transform="scale(0.015625)"/>
       </defs>
       <use xlink:href="#DejaVuSans-2212"/>
       <use xlink:href="#DejaVuSans-30" x="83.789062"/>
       <use xlink:href="#DejaVuSans-2e" x="147.412109"/>
       <use xlink:href="#DejaVuSans-30" x="179.199219"/>
       <use xlink:href="#DejaVuSans-37" x="242.822266"/>
       <use xlink:href="#DejaVuSans-35" x="306.445312"/>
      </g>
     </g>
    </g>
    <g id="xtick_2">
     <g id="line2d_2">
      <g>
       <use xlink:href="#m2f1d5e38cf" x="111.174957" y="288.430125" style="stroke: #000000; stroke-width: 0.8"/>
      </g>
     </g>
     <g id="text_2">
      <!-- −0.050 -->
      <g transform="translate(92.67105 303.028562) scale(0.1 -0.1)">
       <use xlink:href="#DejaVuSans-2212"/>
       <use xlink:href="#DejaVuSans-30" x="83.789062"/>
       <use xlink:href="#DejaVuSans-2e" x="147.412109"/>
       <use xlink:href="#DejaVuSans-30" x="179.199219"/>
       <use xlink:href="#DejaVuSans-35" x="242.822266"/>
       <use xlink:href="#DejaVuSans-30" x="306.445312"/>
      </g>
     </g>
    </g>
    <g id="xtick_3">
     <g id="line2d_3">
      <g>
       <use xlink:href="#m2f1d5e38cf" x="152.668731" y="288.430125" style="stroke: #000000; stroke-width: 0.8"/>
      </g>
     </g>
     <g id="text_3">
      <!-- −0.025 -->
      <g transform="translate(134.164825 303.028562) scale(0.1 -0.1)">
       <defs>
        <path id="DejaVuSans-32" d="M 1228 531 
L 3431 531 
L 3431 0 
L 469 0 
L 469 531 
Q 828 903 1448 1529 
Q 2069 2156 2228 2338 
Q 2531 2678 2651 2914 
Q 2772 3150 2772 3378 
Q 2772 3750 2511 3984 
Q 2250 4219 1831 4219 
Q 1534 4219 1204 4116 
Q 875 4013 500 3803 
L 500 4441 
Q 881 4594 1212 4672 
Q 1544 4750 1819 4750 
Q 2544 4750 2975 4387 
Q 3406 4025 3406 3419 
Q 3406 3131 3298 2873 
Q 3191 2616 2906 2266 
Q 2828 2175 2409 1742 
Q 1991 1309 1228 531 
z
" transform="scale(0.015625)"/>
       </defs>
       <use xlink:href="#DejaVuSans-2212"/>
       <use xlink:href="#DejaVuSans-30" x="83.789062"/>
       <use xlink:href="#DejaVuSans-2e" x="147.412109"/>
       <use xlink:href="#DejaVuSans-30" x="179.199219"/>
       <use xlink:href="#DejaVuSans-32" x="242.822266"/>
       <use xlink:href="#DejaVuSans-35" x="306.445312"/>
      </g>
     </g>
    </g>
    <g id="xtick_4">
     <g id="line2d_4">
      <g>
       <use xlink:href="#m2f1d5e38cf" x="194.162506" y="288.430125" style="stroke: #000000; stroke-width: 0.8"/>
      </g>
     </g>
     <g id="text_4">
      <!-- 0.000 -->
      <g transform="translate(179.848444 303.028562) scale(0.1 -0.1)">
       <use xlink:href="#DejaVuSans-30"/>
       <use xlink:href="#DejaVuSans-2e" x="63.623047"/>
       <use xlink:href="#DejaVuSans-30" x="95.410156"/>
       <use xlink:href="#DejaVuSans-30" x="159.033203"/>
       <use xlink:href="#DejaVuSans-30" x="222.65625"/>
      </g>
     </g>
    </g>
    <g id="xtick_5">
     <g id="line2d_5">
      <g>
       <use xlink:href="#m2f1d5e38cf" x="235.656281" y="288.430125" style="stroke: #000000; stroke-width: 0.8"/>
      </g>
     </g>
     <g id="text_5">
      <!-- 0.025 -->
      <g transform="translate(221.342218 303.028562) scale(0.1 -0.1)">
       <use xlink:href="#DejaVuSans-30"/>
       <use xlink:href="#DejaVuSans-2e" x="63.623047"/>
       <use xlink:href="#DejaVuSans-30" x="95.410156"/>
       <use xlink:href="#DejaVuSans-32" x="159.033203"/>
       <use xlink:href="#DejaVuSans-35" x="222.65625"/>
      </g>
     </g>
    </g>
    <g id="xtick_6">
     <g id="line2d_6">
      <g>
       <use xlink:href="#m2f1d5e38cf" x="277.150056" y="288.430125" style="stroke: #000000; stroke-width: 0.8"/>
      </g>
     </g>
     <g id="text_6">
      <!-- 0.050 -->
      <g transform="translate(262.835993 303.028562) scale(0.1 -0.1)">
       <use xlink:href="#DejaVuSans-30"/>
       <use xlink:href="#DejaVuSans-2e" x="63.623047"/>
       <use xlink:href="#DejaVuSans-30" x="95.410156"/>
       <use xlink:href="#DejaVuSans-35" x="159.033203"/>
       <use xlink:href="#DejaVuSans-30" x="222.65625"/>
      </g>
     </g>
    </g>
    <g id="xtick_7">
     <g id="line2d_7">
      <g>
       <use xlink:href="#m2f1d5e38cf" x="318.64383" y="288.430125" style="stroke: #000000; stroke-width: 0.8"/>
      </g>
     </g>
     <g id="text_7">
      <!-- 0.075 -->
      <g transform="translate(304.329768 303.028562) scale(0.1 -0.1)">
       <use xlink:href="#DejaVuSans-30"/>
       <use xlink:href="#DejaVuSans-2e" x="63.623047"/>
       <use xlink:href="#DejaVuSans-30" x="95.410156"/>
       <use xlink:href="#DejaVuSans-37" x="159.033203"/>
       <use xlink:href="#DejaVuSans-35" x="222.65625"/>
      </g>
     </g>
    </g>
    <g id="xtick_8">
     <g id="line2d_8">
      <g>
       <use xlink:href="#m2f1d5e38cf" x="360.137605" y="288.430125" style="stroke: #000000; stroke-width: 0.8"/>
      </g>
     </g>
     <g id="text_8">
      <!-- 0.100 -->
      <g transform="translate(345.823543 303.028562) scale(0.1 -0.1)">
       <defs>
        <path id="DejaVuSans-31" d="M 794 531 
L 1825 531 
L 1825 4091 
L 703 3866 
L 703 4441 
L 1819 4666 
L 2450 4666 
L 2450 531 
L 3481 531 
L 3481 0 
L 794 0 
L 794 531 
z
" transform="scale(0.015625)"/>
       </defs>
       <use xlink:href="#DejaVuSans-30"/>
       <use xlink:href="#DejaVuSans-2e" x="63.623047"/>
       <use xlink:href="#DejaVuSans-31" x="95.410156"/>
       <use xlink:href="#DejaVuSans-30" x="159.033203"/>
       <use xlink:href="#DejaVuSans-30" x="222.65625"/>
      </g>
     </g>
    </g>
    <g id="xtick_9">
     <g id="line2d_9">
      <g>
       <use xlink:href="#m2f1d5e38cf" x="401.63138" y="288.430125" style="stroke: #000000; stroke-width: 0.8"/>
      </g>
     </g>
     <g id="text_9">
      <!-- 0.125 -->
      <g transform="translate(387.317318 303.028562) scale(0.1 -0.1)">
       <use xlink:href="#DejaVuSans-30"/>
       <use xlink:href="#DejaVuSans-2e" x="63.623047"/>
       <use xlink:href="#DejaVuSans-31" x="95.410156"/>
       <use xlink:href="#DejaVuSans-32" x="159.033203"/>
       <use xlink:href="#DejaVuSans-35" x="222.65625"/>
      </g>
     </g>
    </g>
    <g id="text_10">
     <!-- Principal Component 1 -->
     <g transform="translate(186.751406 316.706687) scale(0.1 -0.1)">
      <defs>
       <path id="DejaVuSans-50" d="M 1259 4147 
L 1259 2394 
L 2053 2394 
Q 2494 2394 2734 2622 
Q 2975 2850 2975 3272 
Q 2975 3691 2734 3919 
Q 2494 4147 2053 4147 
L 1259 4147 
z
M 628 4666 
L 2053 4666 
Q 2838 4666 3239 4311 
Q 3641 3956 3641 3272 
Q 3641 2581 3239 2228 
Q 2838 1875 2053 1875 
L 1259 1875 
L 1259 0 
L 628 0 
L 628 4666 
z
" transform="scale(0.015625)"/>
       <path id="DejaVuSans-72" d="M 2631 2963 
Q 2534 3019 2420 3045 
Q 2306 3072 2169 3072 
Q 1681 3072 1420 2755 
Q 1159 2438 1159 1844 
L 1159 0 
L 581 0 
L 581 3500 
L 1159 3500 
L 1159 2956 
Q 1341 3275 1631 3429 
Q 1922 3584 2338 3584 
Q 2397 3584 2469 3576 
Q 2541 3569 2628 3553 
L 2631 2963 
z
" transform="scale(0.015625)"/>
       <path id="DejaVuSans-69" d="M 603 3500 
L 1178 3500 
L 1178 0 
L 603 0 
L 603 3500 
z
M 603 4863 
L 1178 4863 
L 1178 4134 
L 603 4134 
L 603 4863 
z
" transform="scale(0.015625)"/>
       <path id="DejaVuSans-6e" d="M 3513 2113 
L 3513 0 
L 2938 0 
L 2938 2094 
Q 2938 2591 2744 2837 
Q 2550 3084 2163 3084 
Q 1697 3084 1428 2787 
Q 1159 2491 1159 1978 
L 1159 0 
L 581 0 
L 581 3500 
L 1159 3500 
L 1159 2956 
Q 1366 3272 1645 3428 
Q 1925 3584 2291 3584 
Q 2894 3584 3203 3211 
Q 3513 2838 3513 2113 
z
" transform="scale(0.015625)"/>
       <path id="DejaVuSans-63" d="M 3122 3366 
L 3122 2828 
Q 2878 2963 2633 3030 
Q 2388 3097 2138 3097 
Q 1578 3097 1268 2742 
Q 959 2388 959 1747 
Q 959 1106 1268 751 
Q 1578 397 2138 397 
Q 2388 397 2633 464 
Q 2878 531 3122 666 
L 3122 134 
Q 2881 22 2623 -34 
Q 2366 -91 2075 -91 
Q 1284 -91 818 406 
Q 353 903 353 1747 
Q 353 2603 823 3093 
Q 1294 3584 2113 3584 
Q 2378 3584 2631 3529 
Q 2884 3475 3122 3366 
z
" transform="scale(0.015625)"/>
       <path id="DejaVuSans-70" d="M 1159 525 
L 1159 -1331 
L 581 -1331 
L 581 3500 
L 1159 3500 
L 1159 2969 
Q 1341 3281 1617 3432 
Q 1894 3584 2278 3584 
Q 2916 3584 3314 3078 
Q 3713 2572 3713 1747 
Q 3713 922 3314 415 
Q 2916 -91 2278 -91 
Q 1894 -91 1617 61 
Q 1341 213 1159 525 
z
M 3116 1747 
Q 3116 2381 2855 2742 
Q 2594 3103 2138 3103 
Q 1681 3103 1420 2742 
Q 1159 2381 1159 1747 
Q 1159 1113 1420 752 
Q 1681 391 2138 391 
Q 2594 391 2855 752 
Q 3116 1113 3116 1747 
z
" transform="scale(0.015625)"/>
       <path id="DejaVuSans-61" d="M 2194 1759 
Q 1497 1759 1228 1600 
Q 959 1441 959 1056 
Q 959 750 1161 570 
Q 1363 391 1709 391 
Q 2188 391 2477 730 
Q 2766 1069 2766 1631 
L 2766 1759 
L 2194 1759 
z
M 3341 1997 
L 3341 0 
L 2766 0 
L 2766 531 
Q 2569 213 2275 61 
Q 1981 -91 1556 -91 
Q 1019 -91 701 211 
Q 384 513 384 1019 
Q 384 1609 779 1909 
Q 1175 2209 1959 2209 
L 2766 2209 
L 2766 2266 
Q 2766 2663 2505 2880 
Q 2244 3097 1772 3097 
Q 1472 3097 1187 3025 
Q 903 2953 641 2809 
L 641 3341 
Q 956 3463 1253 3523 
Q 1550 3584 1831 3584 
Q 2591 3584 2966 3190 
Q 3341 2797 3341 1997 
z
" transform="scale(0.015625)"/>
       <path id="DejaVuSans-6c" d="M 603 4863 
L 1178 4863 
L 1178 0 
L 603 0 
L 603 4863 
z
" transform="scale(0.015625)"/>
       <path id="DejaVuSans-20" transform="scale(0.015625)"/>
       <path id="DejaVuSans-43" d="M 4122 4306 
L 4122 3641 
Q 3803 3938 3442 4084 
Q 3081 4231 2675 4231 
Q 1875 4231 1450 3742 
Q 1025 3253 1025 2328 
Q 1025 1406 1450 917 
Q 1875 428 2675 428 
Q 3081 428 3442 575 
Q 3803 722 4122 1019 
L 4122 359 
Q 3791 134 3420 21 
Q 3050 -91 2638 -91 
Q 1578 -91 968 557 
Q 359 1206 359 2328 
Q 359 3453 968 4101 
Q 1578 4750 2638 4750 
Q 3056 4750 3426 4639 
Q 3797 4528 4122 4306 
z
" transform="scale(0.015625)"/>
       <path id="DejaVuSans-6f" d="M 1959 3097 
Q 1497 3097 1228 2736 
Q 959 2375 959 1747 
Q 959 1119 1226 758 
Q 1494 397 1959 397 
Q 2419 397 2687 759 
Q 2956 1122 2956 1747 
Q 2956 2369 2687 2733 
Q 2419 3097 1959 3097 
z
M 1959 3584 
Q 2709 3584 3137 3096 
Q 3566 2609 3566 1747 
Q 3566 888 3137 398 
Q 2709 -91 1959 -91 
Q 1206 -91 779 398 
Q 353 888 353 1747 
Q 353 2609 779 3096 
Q 1206 3584 1959 3584 
z
" transform="scale(0.015625)"/>
       <path id="DejaVuSans-6d" d="M 3328 2828 
Q 3544 3216 3844 3400 
Q 4144 3584 4550 3584 
Q 5097 3584 5394 3201 
Q 5691 2819 5691 2113 
L 5691 0 
L 5113 0 
L 5113 2094 
Q 5113 2597 4934 2840 
Q 4756 3084 4391 3084 
Q 3944 3084 3684 2787 
Q 3425 2491 3425 1978 
L 3425 0 
L 2847 0 
L 2847 2094 
Q 2847 2600 2669 2842 
Q 2491 3084 2119 3084 
Q 1678 3084 1418 2786 
Q 1159 2488 1159 1978 
L 1159 0 
L 581 0 
L 581 3500 
L 1159 3500 
L 1159 2956 
Q 1356 3278 1631 3431 
Q 1906 3584 2284 3584 
Q 2666 3584 2933 3390 
Q 3200 3197 3328 2828 
z
" transform="scale(0.015625)"/>
       <path id="DejaVuSans-65" d="M 3597 1894 
L 3597 1613 
L 953 1613 
Q 991 1019 1311 708 
Q 1631 397 2203 397 
Q 2534 397 2845 478 
Q 3156 559 3463 722 
L 3463 178 
Q 3153 47 2828 -22 
Q 2503 -91 2169 -91 
Q 1331 -91 842 396 
Q 353 884 353 1716 
Q 353 2575 817 3079 
Q 1281 3584 2069 3584 
Q 2775 3584 3186 3129 
Q 3597 2675 3597 1894 
z
M 3022 2063 
Q 3016 2534 2758 2815 
Q 2500 3097 2075 3097 
Q 1594 3097 1305 2825 
Q 1016 2553 972 2059 
L 3022 2063 
z
" transform="scale(0.015625)"/>
       <path id="DejaVuSans-74" d="M 1172 4494 
L 1172 3500 
L 2356 3500 
L 2356 3053 
L 1172 3053 
L 1172 1153 
Q 1172 725 1289 603 
Q 1406 481 1766 481 
L 2356 481 
L 2356 0 
L 1766 0 
Q 1100 0 847 248 
Q 594 497 594 1153 
L 594 3053 
L 172 3053 
L 172 3500 
L 594 3500 
L 594 4494 
L 1172 4494 
z
" transform="scale(0.015625)"/>
      </defs>
      <use xlink:href="#DejaVuSans-50"/>
      <use xlink:href="#DejaVuSans-72" x="58.552734"/>
      <use xlink:href="#DejaVuSans-69" x="99.666016"/>
      <use xlink:href="#DejaVuSans-6e" x="127.449219"/>
      <use xlink:href="#DejaVuSans-63" x="190.828125"/>
      <use xlink:href="#DejaVuSans-69" x="245.808594"/>
      <use xlink:href="#DejaVuSans-70" x="273.591797"/>
      <use xlink:href="#DejaVuSans-61" x="337.068359"/>
      <use xlink:href="#DejaVuSans-6c" x="398.347656"/>
      <use xlink:href="#DejaVuSans-20" x="426.130859"/>
      <use xlink:href="#DejaVuSans-43" x="457.917969"/>
      <use xlink:href="#DejaVuSans-6f" x="527.742188"/>
      <use xlink:href="#DejaVuSans-6d" x="588.923828"/>
      <use xlink:href="#DejaVuSans-70" x="686.335938"/>
      <use xlink:href="#DejaVuSans-6f" x="749.8125"/>
      <use xlink:href="#DejaVuSans-6e" x="810.994141"/>
      <use xlink:href="#DejaVuSans-65" x="874.373047"/>
      <use xlink:href="#DejaVuSans-6e" x="935.896484"/>
      <use xlink:href="#DejaVuSans-74" x="999.275391"/>
      <use xlink:href="#DejaVuSans-20" x="1038.484375"/>
      <use xlink:href="#DejaVuSans-31" x="1070.271484"/>
     </g>
    </g>
   </g>
   <g id="matplotlib.axis_2">
    <g id="ytick_1">
     <g id="line2d_10">
      <defs>
       <path id="m6dc9d3da5e" d="M 0 0 
L -3.5 0 
" style="stroke: #000000; stroke-width: 0.8"/>
      </defs>
      <g>
       <use xlink:href="#m6dc9d3da5e" x="64.885938" y="275.231735" style="stroke: #000000; stroke-width: 0.8"/>
      </g>
     </g>
     <g id="text_11">
      <!-- −0.075 -->
      <g transform="translate(20.878125 279.030954) scale(0.1 -0.1)">
       <use xlink:href="#DejaVuSans-2212"/>
       <use xlink:href="#DejaVuSans-30" x="83.789062"/>
       <use xlink:href="#DejaVuSans-2e" x="147.412109"/>
       <use xlink:href="#DejaVuSans-30" x="179.199219"/>
       <use xlink:href="#DejaVuSans-37" x="242.822266"/>
       <use xlink:href="#DejaVuSans-35" x="306.445312"/>
      </g>
     </g>
    </g>
    <g id="ytick_2">
     <g id="line2d_11">
      <g>
       <use xlink:href="#m6dc9d3da5e" x="64.885938" y="240.608326" style="stroke: #000000; stroke-width: 0.8"/>
      </g>
     </g>
     <g id="text_12">
      <!-- −0.050 -->
      <g transform="translate(20.878125 244.407544) scale(0.1 -0.1)">
       <use xlink:href="#DejaVuSans-2212"/>
       <use xlink:href="#DejaVuSans-30" x="83.789062"/>
       <use xlink:href="#DejaVuSans-2e" x="147.412109"/>
       <use xlink:href="#DejaVuSans-30" x="179.199219"/>
       <use xlink:href="#DejaVuSans-35" x="242.822266"/>
       <use xlink:href="#DejaVuSans-30" x="306.445312"/>
      </g>
     </g>
    </g>
    <g id="ytick_3">
     <g id="line2d_12">
      <g>
       <use xlink:href="#m6dc9d3da5e" x="64.885938" y="205.984916" style="stroke: #000000; stroke-width: 0.8"/>
      </g>
     </g>
     <g id="text_13">
      <!-- −0.025 -->
      <g transform="translate(20.878125 209.784135) scale(0.1 -0.1)">
       <use xlink:href="#DejaVuSans-2212"/>
       <use xlink:href="#DejaVuSans-30" x="83.789062"/>
       <use xlink:href="#DejaVuSans-2e" x="147.412109"/>
       <use xlink:href="#DejaVuSans-30" x="179.199219"/>
       <use xlink:href="#DejaVuSans-32" x="242.822266"/>
       <use xlink:href="#DejaVuSans-35" x="306.445312"/>
      </g>
     </g>
    </g>
    <g id="ytick_4">
     <g id="line2d_13">
      <g>
       <use xlink:href="#m6dc9d3da5e" x="64.885938" y="171.361506" style="stroke: #000000; stroke-width: 0.8"/>
      </g>
     </g>
     <g id="text_14">
      <!-- 0.000 -->
      <g transform="translate(29.257813 175.160725) scale(0.1 -0.1)">
       <use xlink:href="#DejaVuSans-30"/>
       <use xlink:href="#DejaVuSans-2e" x="63.623047"/>
       <use xlink:href="#DejaVuSans-30" x="95.410156"/>
       <use xlink:href="#DejaVuSans-30" x="159.033203"/>
       <use xlink:href="#DejaVuSans-30" x="222.65625"/>
      </g>
     </g>
    </g>
    <g id="ytick_5">
     <g id="line2d_14">
      <g>
       <use xlink:href="#m6dc9d3da5e" x="64.885938" y="136.738096" style="stroke: #000000; stroke-width: 0.8"/>
      </g>
     </g>
     <g id="text_15">
      <!-- 0.025 -->
      <g transform="translate(29.257813 140.537315) scale(0.1 -0.1)">
       <use xlink:href="#DejaVuSans-30"/>
       <use xlink:href="#DejaVuSans-2e" x="63.623047"/>
       <use xlink:href="#DejaVuSans-30" x="95.410156"/>
       <use xlink:href="#DejaVuSans-32" x="159.033203"/>
       <use xlink:href="#DejaVuSans-35" x="222.65625"/>
      </g>
     </g>
    </g>
    <g id="ytick_6">
     <g id="line2d_15">
      <g>
       <use xlink:href="#m6dc9d3da5e" x="64.885938" y="102.114687" style="stroke: #000000; stroke-width: 0.8"/>
      </g>
     </g>
     <g id="text_16">
      <!-- 0.050 -->
      <g transform="translate(29.257813 105.913905) scale(0.1 -0.1)">
       <use xlink:href="#DejaVuSans-30"/>
       <use xlink:href="#DejaVuSans-2e" x="63.623047"/>
       <use xlink:href="#DejaVuSans-30" x="95.410156"/>
       <use xlink:href="#DejaVuSans-35" x="159.033203"/>
       <use xlink:href="#DejaVuSans-30" x="222.65625"/>
      </g>
     </g>
    </g>
    <g id="ytick_7">
     <g id="line2d_16">
      <g>
       <use xlink:href="#m6dc9d3da5e" x="64.885938" y="67.491277" style="stroke: #000000; stroke-width: 0.8"/>
      </g>
     </g>
     <g id="text_17">
      <!-- 0.075 -->
      <g transform="translate(29.257813 71.290496) scale(0.1 -0.1)">
       <use xlink:href="#DejaVuSans-30"/>
       <use xlink:href="#DejaVuSans-2e" x="63.623047"/>
       <use xlink:href="#DejaVuSans-30" x="95.410156"/>
       <use xlink:href="#DejaVuSans-37" x="159.033203"/>
       <use xlink:href="#DejaVuSans-35" x="222.65625"/>
      </g>
     </g>
    </g>
    <g id="ytick_8">
     <g id="line2d_17">
      <g>
       <use xlink:href="#m6dc9d3da5e" x="64.885938" y="32.867867" style="stroke: #000000; stroke-width: 0.8"/>
      </g>
     </g>
     <g id="text_18">
      <!-- 0.100 -->
      <g transform="translate(29.257813 36.667086) scale(0.1 -0.1)">
       <use xlink:href="#DejaVuSans-30"/>
       <use xlink:href="#DejaVuSans-2e" x="63.623047"/>
       <use xlink:href="#DejaVuSans-31" x="95.410156"/>
       <use xlink:href="#DejaVuSans-30" x="159.033203"/>
       <use xlink:href="#DejaVuSans-30" x="222.65625"/>
      </g>
     </g>
    </g>
    <g id="text_19">
     <!-- Principal Component 2 -->
     <g transform="translate(14.798438 212.068656) rotate(-90) scale(0.1 -0.1)">
      <use xlink:href="#DejaVuSans-50"/>
      <use xlink:href="#DejaVuSans-72" x="58.552734"/>
      <use xlink:href="#DejaVuSans-69" x="99.666016"/>
      <use xlink:href="#DejaVuSans-6e" x="127.449219"/>
      <use xlink:href="#DejaVuSans-63" x="190.828125"/>
      <use xlink:href="#DejaVuSans-69" x="245.808594"/>
      <use xlink:href="#DejaVuSans-70" x="273.591797"/>
      <use xlink:href="#DejaVuSans-61" x="337.068359"/>
      <use xlink:href="#DejaVuSans-6c" x="398.347656"/>
      <use xlink:href="#DejaVuSans-20" x="426.130859"/>
      <use xlink:href="#DejaVuSans-43" x="457.917969"/>
      <use xlink:href="#DejaVuSans-6f" x="527.742188"/>
      <use xlink:href="#DejaVuSans-6d" x="588.923828"/>
      <use xlink:href="#DejaVuSans-70" x="686.335938"/>
      <use xlink:href="#DejaVuSans-6f" x="749.8125"/>
      <use xlink:href="#DejaVuSans-6e" x="810.994141"/>
      <use xlink:href="#DejaVuSans-65" x="874.373047"/>
      <use xlink:href="#DejaVuSans-6e" x="935.896484"/>
      <use xlink:href="#DejaVuSans-74" x="999.275391"/>
      <use xlink:href="#DejaVuSans-20" x="1038.484375"/>
      <use xlink:href="#DejaVuSans-32" x="1070.271484"/>
     </g>
    </g>
   </g>
   <g id="patch_3">
    <path d="M 64.885938 288.430125 
L 64.885938 22.318125 
" style="fill: none; stroke: #000000; stroke-width: 0.8; stroke-linejoin: miter; stroke-linecap: square"/>
   </g>
   <g id="patch_4">
    <path d="M 422.005938 288.430125 
L 422.005938 22.318125 
" style="fill: none; stroke: #000000; stroke-width: 0.8; stroke-linejoin: miter; stroke-linecap: square"/>
   </g>
   <g id="patch_5">
    <path d="M 64.885938 288.430125 
L 422.005938 288.430125 
" style="fill: none; stroke: #000000; stroke-width: 0.8; stroke-linejoin: miter; stroke-linecap: square"/>
   </g>
   <g id="patch_6">
    <path d="M 64.885938 22.318125 
L 422.005938 22.318125 
" style="fill: none; stroke: #000000; stroke-width: 0.8; stroke-linejoin: miter; stroke-linecap: square"/>
   </g>
   <g id="text_20">
    <!-- PCA Dimensionality Reduction -->
    <g transform="translate(152.92 16.318125) scale(0.12 -0.12)">
     <defs>
      <path id="DejaVuSans-41" d="M 2188 4044 
L 1331 1722 
L 3047 1722 
L 2188 4044 
z
M 1831 4666 
L 2547 4666 
L 4325 0 
L 3669 0 
L 3244 1197 
L 1141 1197 
L 716 0 
L 50 0 
L 1831 4666 
z
" transform="scale(0.015625)"/>
      <path id="DejaVuSans-44" d="M 1259 4147 
L 1259 519 
L 2022 519 
Q 2988 519 3436 956 
Q 3884 1394 3884 2338 
Q 3884 3275 3436 3711 
Q 2988 4147 2022 4147 
L 1259 4147 
z
M 628 4666 
L 1925 4666 
Q 3281 4666 3915 4102 
Q 4550 3538 4550 2338 
Q 4550 1131 3912 565 
Q 3275 0 1925 0 
L 628 0 
L 628 4666 
z
" transform="scale(0.015625)"/>
      <path id="DejaVuSans-73" d="M 2834 3397 
L 2834 2853 
Q 2591 2978 2328 3040 
Q 2066 3103 1784 3103 
Q 1356 3103 1142 2972 
Q 928 2841 928 2578 
Q 928 2378 1081 2264 
Q 1234 2150 1697 2047 
L 1894 2003 
Q 2506 1872 2764 1633 
Q 3022 1394 3022 966 
Q 3022 478 2636 193 
Q 2250 -91 1575 -91 
Q 1294 -91 989 -36 
Q 684 19 347 128 
L 347 722 
Q 666 556 975 473 
Q 1284 391 1588 391 
Q 1994 391 2212 530 
Q 2431 669 2431 922 
Q 2431 1156 2273 1281 
Q 2116 1406 1581 1522 
L 1381 1569 
Q 847 1681 609 1914 
Q 372 2147 372 2553 
Q 372 3047 722 3315 
Q 1072 3584 1716 3584 
Q 2034 3584 2315 3537 
Q 2597 3491 2834 3397 
z
" transform="scale(0.015625)"/>
      <path id="DejaVuSans-79" d="M 2059 -325 
Q 1816 -950 1584 -1140 
Q 1353 -1331 966 -1331 
L 506 -1331 
L 506 -850 
L 844 -850 
Q 1081 -850 1212 -737 
Q 1344 -625 1503 -206 
L 1606 56 
L 191 3500 
L 800 3500 
L 1894 763 
L 2988 3500 
L 3597 3500 
L 2059 -325 
z
" transform="scale(0.015625)"/>
      <path id="DejaVuSans-52" d="M 2841 2188 
Q 3044 2119 3236 1894 
Q 3428 1669 3622 1275 
L 4263 0 
L 3584 0 
L 2988 1197 
Q 2756 1666 2539 1819 
Q 2322 1972 1947 1972 
L 1259 1972 
L 1259 0 
L 628 0 
L 628 4666 
L 2053 4666 
Q 2853 4666 3247 4331 
Q 3641 3997 3641 3322 
Q 3641 2881 3436 2590 
Q 3231 2300 2841 2188 
z
M 1259 4147 
L 1259 2491 
L 2053 2491 
Q 2509 2491 2742 2702 
Q 2975 2913 2975 3322 
Q 2975 3731 2742 3939 
Q 2509 4147 2053 4147 
L 1259 4147 
z
" transform="scale(0.015625)"/>
      <path id="DejaVuSans-64" d="M 2906 2969 
L 2906 4863 
L 3481 4863 
L 3481 0 
L 2906 0 
L 2906 525 
Q 2725 213 2448 61 
Q 2172 -91 1784 -91 
Q 1150 -91 751 415 
Q 353 922 353 1747 
Q 353 2572 751 3078 
Q 1150 3584 1784 3584 
Q 2172 3584 2448 3432 
Q 2725 3281 2906 2969 
z
M 947 1747 
Q 947 1113 1208 752 
Q 1469 391 1925 391 
Q 2381 391 2643 752 
Q 2906 1113 2906 1747 
Q 2906 2381 2643 2742 
Q 2381 3103 1925 3103 
Q 1469 3103 1208 2742 
Q 947 2381 947 1747 
z
" transform="scale(0.015625)"/>
      <path id="DejaVuSans-75" d="M 544 1381 
L 544 3500 
L 1119 3500 
L 1119 1403 
Q 1119 906 1312 657 
Q 1506 409 1894 409 
Q 2359 409 2629 706 
Q 2900 1003 2900 1516 
L 2900 3500 
L 3475 3500 
L 3475 0 
L 2900 0 
L 2900 538 
Q 2691 219 2414 64 
Q 2138 -91 1772 -91 
Q 1169 -91 856 284 
Q 544 659 544 1381 
z
M 1991 3584 
L 1991 3584 
z
" transform="scale(0.015625)"/>
     </defs>
     <use xlink:href="#DejaVuSans-50"/>
     <use xlink:href="#DejaVuSans-43" x="60.302734"/>
     <use xlink:href="#DejaVuSans-41" x="130.126953"/>
     <use xlink:href="#DejaVuSans-20" x="198.535156"/>
     <use xlink:href="#DejaVuSans-44" x="230.322266"/>
     <use xlink:href="#DejaVuSans-69" x="307.324219"/>
     <use xlink:href="#DejaVuSans-6d" x="335.107422"/>
     <use xlink:href="#DejaVuSans-65" x="432.519531"/>
     <use xlink:href="#DejaVuSans-6e" x="494.042969"/>
     <use xlink:href="#DejaVuSans-73" x="557.421875"/>
     <use xlink:href="#DejaVuSans-69" x="609.521484"/>
     <use xlink:href="#DejaVuSans-6f" x="637.304688"/>
     <use xlink:href="#DejaVuSans-6e" x="698.486328"/>
     <use xlink:href="#DejaVuSans-61" x="761.865234"/>
     <use xlink:href="#DejaVuSans-6c" x="823.144531"/>
     <use xlink:href="#DejaVuSans-69" x="850.927734"/>
     <use xlink:href="#DejaVuSans-74" x="878.710938"/>
     <use xlink:href="#DejaVuSans-79" x="917.919922"/>
     <use xlink:href="#DejaVuSans-20" x="977.099609"/>
     <use xlink:href="#DejaVuSans-52" x="1008.886719"/>
     <use xlink:href="#DejaVuSans-65" x="1073.869141"/>
     <use xlink:href="#DejaVuSans-64" x="1135.392578"/>
     <use xlink:href="#DejaVuSans-75" x="1198.869141"/>
     <use xlink:href="#DejaVuSans-63" x="1262.248047"/>
     <use xlink:href="#DejaVuSans-74" x="1317.228516"/>
     <use xlink:href="#DejaVuSans-69" x="1356.4375"/>
     <use xlink:href="#DejaVuSans-6f" x="1384.220703"/>
     <use xlink:href="#DejaVuSans-6e" x="1445.402344"/>
    </g>
   </g>
   <g id="legend_1">
    <g id="patch_7">
     <path d="M 71.885938 59.674375 
L 139.734375 59.674375 
Q 141.734375 59.674375 141.734375 57.674375 
L 141.734375 29.318125 
Q 141.734375 27.318125 139.734375 27.318125 
L 71.885938 27.318125 
Q 69.885938 27.318125 69.885938 29.318125 
L 69.885938 57.674375 
Q 69.885938 59.674375 71.885938 59.674375 
z
" style="fill: #ffffff; opacity: 0.8; stroke: #cccccc; stroke-linejoin: miter"/>
    </g>
    <g id="PathCollection_3">
     <g>
      <use xlink:href="#m338b558133" x="83.885938" y="36.291562" style="fill: #ff0000; stroke: #ff0000"/>
     </g>
    </g>
    <g id="text_21">
     <!-- Class 1 -->
     <g transform="translate(101.885938 38.916562) scale(0.1 -0.1)">
      <use xlink:href="#DejaVuSans-43"/>
      <use xlink:href="#DejaVuSans-6c" x="69.824219"/>
      <use xlink:href="#DejaVuSans-61" x="97.607422"/>
      <use xlink:href="#DejaVuSans-73" x="158.886719"/>
      <use xlink:href="#DejaVuSans-73" x="210.986328"/>
      <use xlink:href="#DejaVuSans-20" x="263.085938"/>
      <use xlink:href="#DejaVuSans-31" x="294.873047"/>
     </g>
    </g>
    <g id="PathCollection_4">
     <g>
      <use xlink:href="#m57baaabf5e" x="83.885938" y="50.969687" style="fill: #0000ff; stroke: #0000ff"/>
     </g>
    </g>
    <g id="text_22">
     <!-- Class 2 -->
     <g transform="translate(101.885938 53.594687) scale(0.1 -0.1)">
      <use xlink:href="#DejaVuSans-43"/>
      <use xlink:href="#DejaVuSans-6c" x="69.824219"/>
      <use xlink:href="#DejaVuSans-61" x="97.607422"/>
      <use xlink:href="#DejaVuSans-73" x="158.886719"/>
      <use xlink:href="#DejaVuSans-73" x="210.986328"/>
      <use xlink:href="#DejaVuSans-20" x="263.085938"/>
      <use xlink:href="#DejaVuSans-32" x="294.873047"/>
     </g>
    </g>
   </g>
  </g>
 </g>
 <defs>
  <clipPath id="p8b15f4884a">
   <rect x="64.885938" y="22.318125" width="357.12" height="266.112"/>
  </clipPath>
 </defs>
</svg>
